<svg width="289" height="216" viewBox="0 0 289 216" fill="none" xmlns="http://www.w3.org/2000/svg">
<path d="M96 0V185.489L276 216V142.87H207.309V0H96Z" fill="white"/>
<path d="M96 186.502V0H0V176L96 186.502Z" fill="#8DCBEE"/>
<g filter="url(#filter0_i)">
<rect x="174" y="14" width="24" height="24" fill="#8DCBEE"/>
</g>
<g filter="url(#filter1_i)">
<rect x="174" y="47" width="24" height="24" fill="#8DCBEE"/>
</g>
<g filter="url(#filter2_i)">
<rect x="174" y="80" width="24" height="24" fill="#8DCBEE"/>
</g>
<g filter="url(#filter3_i)">
<rect x="174" y="113" width="24" height="24" fill="#8DCBEE"/>
</g>
<g filter="url(#filter4_i)">
<rect x="174" y="146" width="24" height="24" fill="#8DCBEE"/>
</g>
<g filter="url(#filter5_i)">
<path d="M174 179H198V200.5L174 197V179Z" fill="#8DCBEE"/>
</g>
<path d="M33.72 29.24C35.24 29.24 36.68 29.3867 38.04 29.68C39.4 29.9733 40.5867 30.4667 41.6 31.16C42.64 31.8533 43.4533 32.7733 44.04 33.92C44.6267 35.04 44.92 36.4267 44.92 38.08V39C44.92 40.7333 44.6 42.2 43.96 43.4C43.32 44.6 42.4533 45.5733 41.36 46.32C40.2667 47.0933 38.9733 47.64 37.48 47.96C36.0133 48.3067 34.44 48.48 32.76 48.48C31.0267 48.48 29.4133 48.3067 27.92 47.96C26.4267 47.6133 25.12 47.0533 24 46.28C22.9067 45.5333 22.04 44.56 21.4 43.36C20.7867 42.1333 20.48 40.6533 20.48 38.92V27.4C20.48 25.6933 20.8 24.2267 21.44 23C22.08 21.7733 22.96 20.7733 24.08 20C25.2 19.2 26.52 18.6267 28.04 18.28C29.56 17.9067 31.1867 17.72 32.92 17.72C34.9467 17.72 36.7067 17.9467 38.2 18.4C39.72 18.8267 40.9733 19.4 41.96 20.12C42.9467 20.8133 43.68 21.6133 44.16 22.52C44.6667 23.4 44.92 24.2933 44.92 25.2C44.92 26.08 44.5867 26.7733 43.92 27.28C43.28 27.76 42.4267 28 41.36 28C40.4 28 39.6133 27.7867 39 27.36C38.4133 26.9067 38.08 26.2667 38 25.44C37.9467 24.48 37.44 23.7733 36.48 23.32C35.5467 22.8667 34.36 22.64 32.92 22.64C31.16 22.64 29.7867 23.0533 28.8 23.88C27.84 24.68 27.36 25.8533 27.36 27.4V30.56C28.24 30.0267 29.2133 29.68 30.28 29.52C31.3733 29.3333 32.52 29.24 33.72 29.24ZM27.36 39C27.36 40.6 27.8267 41.76 28.76 42.48C29.6933 43.2 31.0267 43.56 32.76 43.56C34.4133 43.56 35.6933 43.2 36.6 42.48C37.5067 41.76 37.96 40.6 37.96 39V38.52C37.96 36.8667 37.4933 35.7333 36.56 35.12C35.6533 34.48 34.3467 34.16 32.64 34.16C31.92 34.16 31.24 34.2533 30.6 34.44C29.96 34.6 29.4 34.8667 28.92 35.24C28.44 35.5867 28.0533 36.04 27.76 36.6C27.4933 37.16 27.36 37.8133 27.36 38.56V39ZM61.1331 43.52C62.9998 43.52 64.3731 43.1867 65.2531 42.52C66.1331 41.8533 66.5731 40.7333 66.5731 39.16V38.48C66.5731 37.0933 66.0665 36.1333 65.0531 35.6C64.0665 35.04 62.7598 34.76 61.1331 34.76C60.1998 34.76 59.5465 34.5067 59.1731 34C58.8265 33.4933 58.6531 32.9733 58.6531 32.44C58.6531 31.8267 58.8265 31.2933 59.1731 30.84C59.5465 30.36 60.1998 30.12 61.1331 30.12C61.7998 30.12 62.3998 30.0667 62.9331 29.96C63.4931 29.8267 63.9731 29.6133 64.3731 29.32C64.7731 29.0267 65.0798 28.64 65.2931 28.16C65.5331 27.68 65.6531 27.08 65.6531 26.36C65.6531 23.88 64.2131 22.64 61.3331 22.64C60.4265 22.64 59.6798 22.7333 59.0931 22.92C58.5065 23.1067 58.0398 23.3467 57.6931 23.64C57.3465 23.9333 57.0931 24.2667 56.9331 24.64C56.7998 24.9867 56.7331 25.32 56.7331 25.64C56.7331 26.3867 56.4531 27.0133 55.8931 27.52C55.3598 28 54.5198 28.24 53.3731 28.24C52.2265 28.24 51.4131 28.0133 50.9331 27.56C50.4531 27.08 50.2131 26.32 50.2131 25.28C50.2131 24.5867 50.3598 23.8 50.6531 22.92C50.9731 22.04 51.5465 21.2133 52.3731 20.44C53.2265 19.6667 54.3731 19.0267 55.8131 18.52C57.2531 17.9867 59.1198 17.72 61.4131 17.72C63.0131 17.72 64.4798 17.8667 65.8131 18.16C67.1731 18.4533 68.3331 18.92 69.2931 19.56C70.2798 20.1733 71.0398 20.9867 71.5731 22C72.1331 22.9867 72.4131 24.1867 72.4131 25.6C72.4131 27.44 72.1198 28.8667 71.5331 29.88C70.9731 30.8933 70.1598 31.6933 69.0931 32.28C70.4798 32.8133 71.5598 33.5733 72.3331 34.56C73.1065 35.5467 73.4931 36.8533 73.4931 38.48V39.16C73.4931 40.8667 73.1598 42.32 72.4931 43.52C71.8531 44.6933 70.9731 45.64 69.8531 46.36C68.7331 47.1067 67.4131 47.64 65.8931 47.96C64.3998 48.3067 62.8131 48.48 61.1331 48.48C58.9998 48.48 57.1731 48.2533 55.6531 47.8C54.1331 47.3467 52.8798 46.76 51.8931 46.04C50.9065 45.3467 50.1865 44.56 49.7331 43.68C49.2798 42.8 49.0531 41.9333 49.0531 41.08C49.0531 40.1467 49.2931 39.44 49.7731 38.96C50.2798 38.48 51.1198 38.24 52.2931 38.24C53.0131 38.24 53.5998 38.3067 54.0531 38.44C54.5331 38.5733 54.9065 38.76 55.1731 39C55.4398 39.24 55.6131 39.52 55.6931 39.84C55.7998 40.16 55.8531 40.52 55.8531 40.92C55.8531 41.6133 56.2798 42.2267 57.1331 42.76C58.0131 43.2667 59.3465 43.52 61.1331 43.52Z" fill="white"/>
<path d="M236.72 29.24C238.24 29.24 239.68 29.3867 241.04 29.68C242.4 29.9733 243.587 30.4667 244.6 31.16C245.64 31.8533 246.453 32.7733 247.04 33.92C247.627 35.04 247.92 36.4267 247.92 38.08V39C247.92 40.7333 247.6 42.2 246.96 43.4C246.32 44.6 245.453 45.5733 244.36 46.32C243.267 47.0933 241.973 47.64 240.48 47.96C239.013 48.3067 237.44 48.48 235.76 48.48C234.027 48.48 232.413 48.3067 230.92 47.96C229.427 47.6133 228.12 47.0533 227 46.28C225.907 45.5333 225.04 44.56 224.4 43.36C223.787 42.1333 223.48 40.6533 223.48 38.92V27.4C223.48 25.6933 223.8 24.2267 224.44 23C225.08 21.7733 225.96 20.7733 227.08 20C228.2 19.2 229.52 18.6267 231.04 18.28C232.56 17.9067 234.187 17.72 235.92 17.72C237.947 17.72 239.707 17.9467 241.2 18.4C242.72 18.8267 243.973 19.4 244.96 20.12C245.947 20.8133 246.68 21.6133 247.16 22.52C247.667 23.4 247.92 24.2933 247.92 25.2C247.92 26.08 247.587 26.7733 246.92 27.28C246.28 27.76 245.427 28 244.36 28C243.4 28 242.613 27.7867 242 27.36C241.413 26.9067 241.08 26.2667 241 25.44C240.947 24.48 240.44 23.7733 239.48 23.32C238.547 22.8667 237.36 22.64 235.92 22.64C234.16 22.64 232.787 23.0533 231.8 23.88C230.84 24.68 230.36 25.8533 230.36 27.4V30.56C231.24 30.0267 232.213 29.68 233.28 29.52C234.373 29.3333 235.52 29.24 236.72 29.24ZM230.36 39C230.36 40.6 230.827 41.76 231.76 42.48C232.693 43.2 234.027 43.56 235.76 43.56C237.413 43.56 238.693 43.2 239.6 42.48C240.507 41.76 240.96 40.6 240.96 39V38.52C240.96 36.8667 240.493 35.7333 239.56 35.12C238.653 34.48 237.347 34.16 235.64 34.16C234.92 34.16 234.24 34.2533 233.6 34.44C232.96 34.6 232.4 34.8667 231.92 35.24C231.44 35.5867 231.053 36.04 230.76 36.6C230.493 37.16 230.36 37.8133 230.36 38.56V39ZM258.493 25.44C258.2 25.6533 257.893 25.8667 257.573 26.08C257.28 26.2667 256.946 26.4533 256.573 26.64C256.253 26.8 255.893 26.9467 255.493 27.08C255.12 27.1867 254.733 27.24 254.333 27.24C253.96 27.24 253.586 27.1733 253.213 27.04C252.866 26.88 252.573 26.6133 252.333 26.24C251.8 25.4667 251.64 24.7467 251.853 24.08C252.093 23.3867 252.56 22.84 253.253 22.44L259.773 18.64C260.04 18.4267 260.386 18.2667 260.813 18.16C261.24 18.0267 261.666 17.96 262.093 17.96C263 17.96 263.786 18.2 264.453 18.68C265.12 19.16 265.453 19.9067 265.453 20.92V45.2C265.453 46.2933 265.093 47.08 264.373 47.56C263.68 48.04 262.893 48.28 262.013 48.28C261.56 48.28 261.12 48.2133 260.693 48.08C260.293 47.9733 259.92 47.7867 259.573 47.52C259.253 47.28 258.986 46.96 258.773 46.56C258.586 46.1867 258.493 45.7333 258.493 45.2V25.44ZM276.149 25.44C275.856 25.6533 275.549 25.8667 275.229 26.08C274.936 26.2667 274.603 26.4533 274.229 26.64C273.909 26.8 273.549 26.9467 273.149 27.08C272.776 27.1867 272.389 27.24 271.989 27.24C271.616 27.24 271.243 27.1733 270.869 27.04C270.523 26.88 270.229 26.6133 269.989 26.24C269.456 25.4667 269.296 24.7467 269.509 24.08C269.749 23.3867 270.216 22.84 270.909 22.44L277.429 18.64C277.696 18.4267 278.043 18.2667 278.469 18.16C278.896 18.0267 279.323 17.96 279.749 17.96C280.656 17.96 281.443 18.2 282.109 18.68C282.776 19.16 283.109 19.9067 283.109 20.92V45.2C283.109 46.2933 282.749 47.08 282.029 47.56C281.336 48.04 280.549 48.28 279.669 48.28C279.216 48.28 278.776 48.2133 278.349 48.08C277.949 47.9733 277.576 47.7867 277.229 47.52C276.909 47.28 276.643 46.96 276.429 46.56C276.243 46.1867 276.149 45.7333 276.149 45.2V25.44Z" fill="#8DCBEE"/>
<defs>
<filter id="filter0_i" x="170" y="14" width="28" height="24" filterUnits="userSpaceOnUse" color-interpolation-filters="sRGB">
<feFlood flood-opacity="0" result="BackgroundImageFix"/>
<feBlend mode="normal" in="SourceGraphic" in2="BackgroundImageFix" result="shape"/>
<feColorMatrix in="SourceAlpha" type="matrix" values="0 0 0 0 0 0 0 0 0 0 0 0 0 0 0 0 0 0 127 0" result="hardAlpha"/>
<feOffset dx="-5"/>
<feGaussianBlur stdDeviation="2"/>
<feComposite in2="hardAlpha" operator="arithmetic" k2="-1" k3="1"/>
<feColorMatrix type="matrix" values="0 0 0 0 0.361215 0 0 0 0 0.678961 0 0 0 0 0.858333 0 0 0 1 0"/>
<feBlend mode="normal" in2="shape" result="effect1_innerShadow"/>
</filter>
<filter id="filter1_i" x="170" y="47" width="28" height="24" filterUnits="userSpaceOnUse" color-interpolation-filters="sRGB">
<feFlood flood-opacity="0" result="BackgroundImageFix"/>
<feBlend mode="normal" in="SourceGraphic" in2="BackgroundImageFix" result="shape"/>
<feColorMatrix in="SourceAlpha" type="matrix" values="0 0 0 0 0 0 0 0 0 0 0 0 0 0 0 0 0 0 127 0" result="hardAlpha"/>
<feOffset dx="-5"/>
<feGaussianBlur stdDeviation="2"/>
<feComposite in2="hardAlpha" operator="arithmetic" k2="-1" k3="1"/>
<feColorMatrix type="matrix" values="0 0 0 0 0.361215 0 0 0 0 0.678961 0 0 0 0 0.858333 0 0 0 1 0"/>
<feBlend mode="normal" in2="shape" result="effect1_innerShadow"/>
</filter>
<filter id="filter2_i" x="170" y="80" width="28" height="24" filterUnits="userSpaceOnUse" color-interpolation-filters="sRGB">
<feFlood flood-opacity="0" result="BackgroundImageFix"/>
<feBlend mode="normal" in="SourceGraphic" in2="BackgroundImageFix" result="shape"/>
<feColorMatrix in="SourceAlpha" type="matrix" values="0 0 0 0 0 0 0 0 0 0 0 0 0 0 0 0 0 0 127 0" result="hardAlpha"/>
<feOffset dx="-5"/>
<feGaussianBlur stdDeviation="2"/>
<feComposite in2="hardAlpha" operator="arithmetic" k2="-1" k3="1"/>
<feColorMatrix type="matrix" values="0 0 0 0 0.361215 0 0 0 0 0.678961 0 0 0 0 0.858333 0 0 0 1 0"/>
<feBlend mode="normal" in2="shape" result="effect1_innerShadow"/>
</filter>
<filter id="filter3_i" x="170" y="113" width="28" height="24" filterUnits="userSpaceOnUse" color-interpolation-filters="sRGB">
<feFlood flood-opacity="0" result="BackgroundImageFix"/>
<feBlend mode="normal" in="SourceGraphic" in2="BackgroundImageFix" result="shape"/>
<feColorMatrix in="SourceAlpha" type="matrix" values="0 0 0 0 0 0 0 0 0 0 0 0 0 0 0 0 0 0 127 0" result="hardAlpha"/>
<feOffset dx="-5"/>
<feGaussianBlur stdDeviation="2"/>
<feComposite in2="hardAlpha" operator="arithmetic" k2="-1" k3="1"/>
<feColorMatrix type="matrix" values="0 0 0 0 0.361215 0 0 0 0 0.678961 0 0 0 0 0.858333 0 0 0 1 0"/>
<feBlend mode="normal" in2="shape" result="effect1_innerShadow"/>
</filter>
<filter id="filter4_i" x="170" y="146" width="28" height="24" filterUnits="userSpaceOnUse" color-interpolation-filters="sRGB">
<feFlood flood-opacity="0" result="BackgroundImageFix"/>
<feBlend mode="normal" in="SourceGraphic" in2="BackgroundImageFix" result="shape"/>
<feColorMatrix in="SourceAlpha" type="matrix" values="0 0 0 0 0 0 0 0 0 0 0 0 0 0 0 0 0 0 127 0" result="hardAlpha"/>
<feOffset dx="-5"/>
<feGaussianBlur stdDeviation="2"/>
<feComposite in2="hardAlpha" operator="arithmetic" k2="-1" k3="1"/>
<feColorMatrix type="matrix" values="0 0 0 0 0.361215 0 0 0 0 0.678961 0 0 0 0 0.858333 0 0 0 1 0"/>
<feBlend mode="normal" in2="shape" result="effect1_innerShadow"/>
</filter>
<filter id="filter5_i" x="170" y="179" width="28" height="21.5" filterUnits="userSpaceOnUse" color-interpolation-filters="sRGB">
<feFlood flood-opacity="0" result="BackgroundImageFix"/>
<feBlend mode="normal" in="SourceGraphic" in2="BackgroundImageFix" result="shape"/>
<feColorMatrix in="SourceAlpha" type="matrix" values="0 0 0 0 0 0 0 0 0 0 0 0 0 0 0 0 0 0 127 0" result="hardAlpha"/>
<feOffset dx="-5"/>
<feGaussianBlur stdDeviation="2"/>
<feComposite in2="hardAlpha" operator="arithmetic" k2="-1" k3="1"/>
<feColorMatrix type="matrix" values="0 0 0 0 0.361215 0 0 0 0 0.678961 0 0 0 0 0.858333 0 0 0 1 0"/>
<feBlend mode="normal" in2="shape" result="effect1_innerShadow"/>
</filter>
</defs>
</svg>
