<svg width="112" height="136" viewBox="0 0 112 136" fill="none" xmlns="http://www.w3.org/2000/svg">
<path d="M20.8209 35.7191C21.6609 35.7191 22.2609 35.9091 22.6209 36.2891C22.9809 36.6491 23.1609 37.0891 23.1609 37.6091C23.1609 38.0291 22.9909 38.4391 22.6509 38.8391C22.3309 39.2191 21.7209 39.4091 20.8209 39.4091H12.3309V44.3291C12.9109 44.2091 13.4709 44.1191 14.0109 44.0591C14.5709 43.9991 15.0809 43.9691 15.5409 43.9691C16.7409 43.9691 17.8809 44.0891 18.9609 44.3291C20.0609 44.5691 21.0209 44.9591 21.8409 45.4991C22.6809 46.0191 23.3409 46.7091 23.8209 47.5691C24.3209 48.4091 24.5709 49.4491 24.5709 50.6891V51.5291C24.5709 52.8291 24.3409 53.9291 23.8809 54.8291C23.4209 55.7091 22.7809 56.4291 21.9609 56.9891C21.1609 57.5691 20.2109 57.9791 19.1109 58.2191C18.0309 58.4791 16.8509 58.6091 15.5709 58.6091C14.1109 58.6091 12.8209 58.4591 11.7009 58.1591C10.5809 57.8791 9.64086 57.4891 8.88086 56.9891C8.14086 56.5091 7.58086 55.9391 7.20086 55.2791C6.82086 54.6191 6.63086 53.9191 6.63086 53.1791C6.63086 52.4191 6.85086 51.8391 7.29086 51.4391C7.75086 51.0191 8.38086 50.8091 9.18086 50.8091C9.70086 50.8091 10.1309 50.8691 10.4709 50.9891C10.8109 51.1091 11.0709 51.2691 11.2509 51.4691C11.4509 51.6691 11.5909 51.8991 11.6709 52.1591C11.7509 52.4191 11.7909 52.6791 11.7909 52.9391C11.7909 53.5991 12.1409 54.0891 12.8409 54.4091C13.5609 54.7291 14.4609 54.8891 15.5409 54.8891C16.8009 54.8891 17.7509 54.6291 18.3909 54.1091C19.0309 53.5891 19.3509 52.7291 19.3509 51.5291V50.8691C19.3509 49.7291 18.9309 48.8891 18.0909 48.3491C17.2709 47.7891 16.2309 47.5291 14.9709 47.5691C14.6509 47.5691 14.3709 47.5791 14.1309 47.5991C13.9109 47.6191 13.6809 47.6591 13.4409 47.7191C13.2009 47.7591 12.9409 47.8191 12.6609 47.8991C12.4009 47.9591 12.0709 48.0391 11.6709 48.1391C10.8709 48.3391 10.2609 48.4591 9.84086 48.4991C9.42086 48.5191 9.04086 48.4791 8.70086 48.3791L8.73086 48.4091C8.19086 48.2491 7.79086 47.9791 7.53086 47.5991C7.27086 47.1991 7.14086 46.7091 7.14086 46.1291V37.6091C7.14086 36.8891 7.32086 36.3991 7.68086 36.1391C8.04086 35.8591 8.52086 35.7191 9.12086 35.7191H20.8209Z" fill="#8FD3A4"/>
<path d="M42.3541 35.7191C43.1941 35.7191 43.7941 35.9091 44.1541 36.2891C44.5141 36.6491 44.6941 37.0891 44.6941 37.6091C44.6941 38.0291 44.5241 38.4391 44.1841 38.8391C43.8641 39.2191 43.2541 39.4091 42.3541 39.4091H33.8641V44.3291C34.4441 44.2091 35.0041 44.1191 35.5441 44.0591C36.1041 43.9991 36.6141 43.9691 37.0741 43.9691C38.2741 43.9691 39.4141 44.0891 40.4941 44.3291C41.5941 44.5691 42.5541 44.9591 43.3741 45.4991C44.2141 46.0191 44.8741 46.7091 45.3541 47.5691C45.8541 48.4091 46.1041 49.4491 46.1041 50.6891V51.5291C46.1041 52.8291 45.8741 53.9291 45.4141 54.8291C44.9541 55.7091 44.3141 56.4291 43.4941 56.9891C42.6941 57.5691 41.7441 57.9791 40.6441 58.2191C39.5641 58.4791 38.3841 58.6091 37.1041 58.6091C35.6441 58.6091 34.3541 58.4591 33.2341 58.1591C32.1141 57.8791 31.1741 57.4891 30.4141 56.9891C29.6741 56.5091 29.1141 55.9391 28.7341 55.2791C28.3541 54.6191 28.1641 53.9191 28.1641 53.1791C28.1641 52.4191 28.3841 51.8391 28.8241 51.4391C29.2841 51.0191 29.9141 50.8091 30.7141 50.8091C31.2341 50.8091 31.6641 50.8691 32.0041 50.9891C32.3441 51.1091 32.6041 51.2691 32.7841 51.4691C32.9841 51.6691 33.1241 51.8991 33.2041 52.1591C33.2841 52.4191 33.3241 52.6791 33.3241 52.9391C33.3241 53.5991 33.6741 54.0891 34.3741 54.4091C35.0941 54.7291 35.9941 54.8891 37.0741 54.8891C38.3341 54.8891 39.2841 54.6291 39.9241 54.1091C40.5641 53.5891 40.8841 52.7291 40.8841 51.5291V50.8691C40.8841 49.7291 40.4641 48.8891 39.6241 48.3491C38.8041 47.7891 37.7641 47.5291 36.5041 47.5691C36.1841 47.5691 35.9041 47.5791 35.6641 47.5991C35.4441 47.6191 35.2141 47.6591 34.9741 47.7191C34.7341 47.7591 34.4741 47.8191 34.1941 47.8991C33.9341 47.9591 33.6041 48.0391 33.2041 48.1391C32.4041 48.3391 31.7941 48.4591 31.3741 48.4991C30.9541 48.5191 30.5741 48.4791 30.2341 48.3791L30.2641 48.4091C29.7241 48.2491 29.3241 47.9791 29.0641 47.5991C28.8041 47.1991 28.6741 46.7091 28.6741 46.1291V37.6091C28.6741 36.8891 28.8541 36.3991 29.2141 36.1391C29.5741 35.8591 30.0541 35.7191 30.6541 35.7191H42.3541Z" fill="#8FD3A4"/>
<path d="M54.1073 41.3291C53.8873 41.4891 53.6573 41.6491 53.4173 41.8091C53.1973 41.9491 52.9473 42.0891 52.6673 42.2291C52.4273 42.3491 52.1573 42.4591 51.8573 42.5591C51.5773 42.6391 51.2873 42.6791 50.9873 42.6791C50.7073 42.6791 50.4273 42.6291 50.1473 42.5291C49.8873 42.4091 49.6673 42.2091 49.4873 41.9291C49.0873 41.3491 48.9673 40.8091 49.1273 40.3091C49.3073 39.7891 49.6573 39.3791 50.1773 39.0791L55.0673 36.2291C55.2673 36.0691 55.5273 35.9491 55.8473 35.8691C56.1673 35.7691 56.4873 35.7191 56.8073 35.7191C57.4873 35.7191 58.0773 35.8991 58.5773 36.2591C59.0773 36.6191 59.3273 37.1791 59.3273 37.9391V56.1491C59.3273 56.9691 59.0573 57.5591 58.5173 57.9191C57.9973 58.2791 57.4073 58.4591 56.7473 58.4591C56.4073 58.4591 56.0773 58.4091 55.7573 58.3091C55.4573 58.2291 55.1773 58.0891 54.9173 57.8891C54.6773 57.7091 54.4773 57.4691 54.3173 57.1691C54.1773 56.8891 54.1073 56.5491 54.1073 56.1491V41.3291Z" fill="#8FD3A4"/>
<path d="M75.3946 44.1791C76.5346 44.1791 77.6146 44.2891 78.6346 44.5091C79.6546 44.7291 80.5446 45.0991 81.3046 45.6191C82.0846 46.1391 82.6946 46.8291 83.1346 47.6891C83.5746 48.5291 83.7946 49.5691 83.7946 50.8091V51.4991C83.7946 52.7991 83.5546 53.8991 83.0746 54.7991C82.5946 55.6991 81.9446 56.4291 81.1246 56.9891C80.3046 57.5691 79.3346 57.9791 78.2146 58.2191C77.1146 58.4791 75.9346 58.6091 74.6746 58.6091C73.3746 58.6091 72.1646 58.4791 71.0446 58.2191C69.9246 57.9591 68.9446 57.5391 68.1046 56.9591C67.2846 56.3991 66.6346 55.6691 66.1546 54.7691C65.6946 53.8491 65.4646 52.7391 65.4646 51.4391V42.7991C65.4646 41.5191 65.7046 40.4191 66.1846 39.4991C66.6646 38.5791 67.3246 37.8291 68.1646 37.2491C69.0046 36.6491 69.9946 36.2191 71.1346 35.9591C72.2746 35.6791 73.4946 35.5391 74.7946 35.5391C76.3146 35.5391 77.6346 35.7091 78.7546 36.0491C79.8946 36.3691 80.8346 36.7991 81.5746 37.3391C82.3146 37.8591 82.8646 38.4591 83.2246 39.1391C83.6046 39.7991 83.7946 40.4691 83.7946 41.1491C83.7946 41.8091 83.5446 42.3291 83.0446 42.7091C82.5646 43.0691 81.9246 43.2491 81.1246 43.2491C80.4046 43.2491 79.8146 43.0891 79.3546 42.7691C78.9146 42.4291 78.6646 41.9491 78.6046 41.3291C78.5646 40.6091 78.1846 40.0791 77.4646 39.7391C76.7646 39.3991 75.8746 39.2291 74.7946 39.2291C73.4746 39.2291 72.4446 39.5391 71.7046 40.1591C70.9846 40.7591 70.6246 41.6391 70.6246 42.7991V45.1691C71.2846 44.7691 72.0146 44.5091 72.8146 44.3891C73.6346 44.2491 74.4946 44.1791 75.3946 44.1791ZM70.6246 51.4991C70.6246 52.6991 70.9746 53.5691 71.6746 54.1091C72.3746 54.6491 73.3746 54.9191 74.6746 54.9191C75.9146 54.9191 76.8746 54.6491 77.5546 54.1091C78.2346 53.5691 78.5746 52.6991 78.5746 51.4991V51.1391C78.5746 49.8991 78.2246 49.0491 77.5246 48.5891C76.8446 48.1091 75.8646 47.8691 74.5846 47.8691C74.0446 47.8691 73.5346 47.9391 73.0546 48.0791C72.5746 48.1991 72.1546 48.3991 71.7946 48.6791C71.4346 48.9391 71.1446 49.2791 70.9246 49.6991C70.7246 50.1191 70.6246 50.6091 70.6246 51.1691V51.4991Z" fill="#8FD3A4"/>
<path d="M20.8101 0.720215C21.6501 0.720215 22.2501 0.910215 22.6101 1.29022C22.9701 1.65022 23.1501 2.09021 23.1501 2.61022C23.1501 3.03022 22.9801 3.44022 22.6401 3.84022C22.3201 4.22022 21.7101 4.41022 20.8101 4.41022H12.3201V9.33022C12.9001 9.21022 13.4601 9.12022 14.0001 9.06022C14.5601 9.00022 15.0701 8.97022 15.5301 8.97022C16.7301 8.97022 17.8701 9.09022 18.9501 9.33022C20.0501 9.57022 21.0101 9.96022 21.8301 10.5002C22.6701 11.0202 23.3301 11.7102 23.8101 12.5702C24.3101 13.4102 24.5601 14.4502 24.5601 15.6902V16.5302C24.5601 17.8302 24.3301 18.9302 23.8701 19.8302C23.4101 20.7102 22.7701 21.4302 21.9501 21.9902C21.1501 22.5702 20.2001 22.9802 19.1001 23.2202C18.0201 23.4802 16.8401 23.6102 15.5601 23.6102C14.1001 23.6102 12.8101 23.4602 11.6901 23.1602C10.5701 22.8802 9.63012 22.4902 8.87012 21.9902C8.13012 21.5102 7.57012 20.9402 7.19012 20.2802C6.81012 19.6202 6.62012 18.9202 6.62012 18.1802C6.62012 17.4202 6.84012 16.8402 7.28012 16.4402C7.74012 16.0202 8.37012 15.8102 9.17012 15.8102C9.69012 15.8102 10.1201 15.8702 10.4601 15.9902C10.8001 16.1102 11.0601 16.2702 11.2401 16.4702C11.4401 16.6702 11.5801 16.9002 11.6601 17.1602C11.7401 17.4202 11.7801 17.6802 11.7801 17.9402C11.7801 18.6002 12.1301 19.0902 12.8301 19.4102C13.5501 19.7302 14.4501 19.8902 15.5301 19.8902C16.7901 19.8902 17.7401 19.6302 18.3801 19.1102C19.0201 18.5902 19.3401 17.7302 19.3401 16.5302V15.8702C19.3401 14.7302 18.9201 13.8902 18.0801 13.3502C17.2601 12.7902 16.2201 12.5302 14.9601 12.5702C14.6401 12.5702 14.3601 12.5802 14.1201 12.6002C13.9001 12.6202 13.6701 12.6602 13.4301 12.7202C13.1901 12.7602 12.9301 12.8202 12.6501 12.9002C12.3901 12.9602 12.0601 13.0402 11.6601 13.1402C10.8601 13.3402 10.2501 13.4602 9.83012 13.5002C9.41012 13.5202 9.03012 13.4802 8.69012 13.3802L8.72012 13.4102C8.18012 13.2502 7.78012 12.9802 7.52012 12.6002C7.26012 12.2002 7.13012 11.7102 7.13012 11.1302V2.61022C7.13012 1.89021 7.31012 1.40022 7.67012 1.14021C8.03012 0.860215 8.51012 0.720215 9.11012 0.720215H20.8101Z" fill="#8FD3A4"/>
<path d="M42.3433 0.720215C43.1833 0.720215 43.7833 0.910215 44.1433 1.29022C44.5033 1.65022 44.6833 2.09021 44.6833 2.61022C44.6833 3.03022 44.5133 3.44022 44.1733 3.84022C43.8533 4.22022 43.2433 4.41022 42.3433 4.41022H33.8533V9.33022C34.4333 9.21022 34.9933 9.12022 35.5333 9.06022C36.0933 9.00022 36.6033 8.97022 37.0633 8.97022C38.2633 8.97022 39.4033 9.09022 40.4833 9.33022C41.5833 9.57022 42.5433 9.96022 43.3633 10.5002C44.2033 11.0202 44.8633 11.7102 45.3433 12.5702C45.8433 13.4102 46.0933 14.4502 46.0933 15.6902V16.5302C46.0933 17.8302 45.8633 18.9302 45.4033 19.8302C44.9433 20.7102 44.3033 21.4302 43.4833 21.9902C42.6833 22.5702 41.7333 22.9802 40.6333 23.2202C39.5533 23.4802 38.3733 23.6102 37.0933 23.6102C35.6333 23.6102 34.3433 23.4602 33.2233 23.1602C32.1033 22.8802 31.1633 22.4902 30.4033 21.9902C29.6633 21.5102 29.1033 20.9402 28.7233 20.2802C28.3433 19.6202 28.1533 18.9202 28.1533 18.1802C28.1533 17.4202 28.3733 16.8402 28.8133 16.4402C29.2733 16.0202 29.9033 15.8102 30.7033 15.8102C31.2233 15.8102 31.6533 15.8702 31.9933 15.9902C32.3333 16.1102 32.5933 16.2702 32.7733 16.4702C32.9733 16.6702 33.1133 16.9002 33.1933 17.1602C33.2733 17.4202 33.3133 17.6802 33.3133 17.9402C33.3133 18.6002 33.6633 19.0902 34.3633 19.4102C35.0833 19.7302 35.9833 19.8902 37.0633 19.8902C38.3233 19.8902 39.2733 19.6302 39.9133 19.1102C40.5533 18.5902 40.8733 17.7302 40.8733 16.5302V15.8702C40.8733 14.7302 40.4533 13.8902 39.6133 13.3502C38.7933 12.7902 37.7533 12.5302 36.4933 12.5702C36.1733 12.5702 35.8933 12.5802 35.6533 12.6002C35.4333 12.6202 35.2033 12.6602 34.9633 12.7202C34.7233 12.7602 34.4633 12.8202 34.1833 12.9002C33.9233 12.9602 33.5933 13.0402 33.1933 13.1402C32.3933 13.3402 31.7833 13.4602 31.3633 13.5002C30.9433 13.5202 30.5633 13.4802 30.2233 13.3802L30.2533 13.4102C29.7133 13.2502 29.3133 12.9802 29.0533 12.6002C28.7933 12.2002 28.6633 11.7102 28.6633 11.1302V2.61022C28.6633 1.89021 28.8433 1.40022 29.2033 1.14021C29.5633 0.860215 30.0433 0.720215 30.6433 0.720215H42.3433Z" fill="#8FD3A4"/>
<path d="M54.0965 6.33022C53.8765 6.49022 53.6465 6.65022 53.4065 6.81022C53.1865 6.95022 52.9365 7.09022 52.6565 7.23022C52.4165 7.35022 52.1465 7.46022 51.8465 7.56022C51.5665 7.64022 51.2765 7.68022 50.9765 7.68022C50.6965 7.68022 50.4165 7.63022 50.1365 7.53022C49.8765 7.41022 49.6565 7.21022 49.4765 6.93022C49.0765 6.35022 48.9565 5.81022 49.1165 5.31022C49.2965 4.79022 49.6465 4.38022 50.1665 4.08022L55.0565 1.23022C55.2565 1.07021 55.5165 0.950215 55.8365 0.870216C56.1565 0.770215 56.4765 0.720215 56.7965 0.720215C57.4765 0.720215 58.0665 0.900215 58.5665 1.26021C59.0665 1.62021 59.3165 2.18022 59.3165 2.94022V21.1502C59.3165 21.9702 59.0465 22.5602 58.5065 22.9202C57.9865 23.2802 57.3965 23.4602 56.7365 23.4602C56.3965 23.4602 56.0665 23.4102 55.7465 23.3102C55.4465 23.2302 55.1665 23.0902 54.9065 22.8902C54.6665 22.7102 54.4665 22.4702 54.3065 22.1702C54.1665 21.8902 54.0965 21.5502 54.0965 21.1502V6.33022Z" fill="#8FD3A4"/>
<path d="M67.3387 6.33022C67.1187 6.49022 66.8887 6.65022 66.6487 6.81022C66.4287 6.95022 66.1787 7.09022 65.8987 7.23022C65.6587 7.35022 65.3887 7.46022 65.0887 7.56022C64.8087 7.64022 64.5187 7.68022 64.2187 7.68022C63.9387 7.68022 63.6587 7.63022 63.3787 7.53022C63.1187 7.41022 62.8987 7.21022 62.7187 6.93022C62.3187 6.35022 62.1987 5.81022 62.3587 5.31022C62.5387 4.79022 62.8887 4.38022 63.4087 4.08022L68.2987 1.23022C68.4987 1.07021 68.7587 0.950215 69.0787 0.870216C69.3987 0.770215 69.7187 0.720215 70.0387 0.720215C70.7187 0.720215 71.3087 0.900215 71.8087 1.26021C72.3087 1.62021 72.5587 2.18022 72.5587 2.94022V21.1502C72.5587 21.9702 72.2887 22.5602 71.7487 22.9202C71.2287 23.2802 70.6387 23.4602 69.9787 23.4602C69.6387 23.4602 69.3087 23.4102 68.9887 23.3102C68.6887 23.2302 68.4087 23.0902 68.1487 22.8902C67.9087 22.7102 67.7087 22.4702 67.5487 22.1702C67.4087 21.8902 67.3387 21.5502 67.3387 21.1502V6.33022Z" fill="#8FD3A4"/>
<rect y="73.1475" width="111" height="49" rx="8" transform="rotate(-0.0760664 0 73.1475)" fill="#8FD3A4"/>
<rect x="13.9751" y="83.9736" width="17.0282" height="19.9711" transform="rotate(-0.0760664 13.9751 83.9736)" fill="#EDF9FF"/>
<circle cx="26.9104" cy="123.228" r="11" transform="rotate(5.81521 26.9104 123.228)" fill="#A9A3A3"/>
<circle cx="83.4329" cy="123.228" r="11" transform="rotate(5.81521 83.4329 123.228)" fill="#A9A3A3"/>
</svg>
