<svg width="138" height="193" viewBox="0 0 138 193" fill="none" xmlns="http://www.w3.org/2000/svg">
<path fill-rule="evenodd" clip-rule="evenodd" d="M8.99992 1.00016C16 -5.24074e-05 27.8003 6.47727 30.0968 11.5L88.5024 136.582V13.0014C88.5024 7.47859 121.477 1.00021 127 1.00021L137.502 3.00144V26H108.502V45.5014L127.5 43.5002L137.502 45.5014V68.5H108.502V182.501C108.502 187.204 105.225 191.272 100.63 192.272C96.0351 193.273 89.9999 191.5 83.9999 189.5L11.9079 17.1597C9.6114 12.1369 3.97719 3.29669 8.99992 1.00016Z" fill="#9CDBFF"/>
<path fill-rule="evenodd" clip-rule="evenodd" d="M6.84176 1.90456C11.8645 -0.391967 17.7979 1.81806 20.0944 6.84078L78.5 134.579V10.999C78.5 5.47617 82.9771 0.999016 88.5 0.999016H127.5V20.999H98.5V43.499H127.5V63.499H98.5V180.499C98.5 185.202 95.223 189.269 90.6278 190.27C86.0326 191.271 81.3611 188.934 79.4055 184.657L1.90554 15.1572C-0.39099 10.1345 1.81903 4.20109 6.84176 1.90456Z" fill="white"/>
</svg>
